<?xml version="1.0" standalone="no"?>
<!DOCTYPE svg PUBLIC "-//W3C//DTD SVG 1.1//EN" "http://www.w3.org/Graphics/SVG/1.1/DTD/svg11.dtd" >
<svg xmlns="http://www.w3.org/2000/svg">
<metadata>Generated by IcoMoon</metadata>
<defs>
<font id="icomoon" horiz-adv-x="1024">
<font-face units-per-em="1024" ascent="960" descent="-64" />
<missing-glyph horiz-adv-x="1024" />
<glyph unicode="&#x20;" horiz-adv-x="512" d="" />
<glyph unicode="&#xe116;" glyph-name="check" d="M896 725.334q18.333 0 30.5-12.167t12.167-30.5q0-18-12.333-30.333l-512-512q-12.333-12.333-30.333-12.333t-30.333 12.333l-256 256q-12.333 12.333-12.333 30.333 0 18.333 12.167 30.5t30.5 12.167q18 0 30.333-12.333l225.667-226 481.667 482q12.333 12.333 30.333 12.333z" />
<glyph unicode="&#xe117;" glyph-name="cross" d="M810.667 768q18.333 0 30.5-12.167t12.167-30.5q0-18-12.333-30.333l-268.667-268.333 268.667-268.333q12.333-12.333 12.333-30.333 0-18.333-12.167-30.5t-30.5-12.167q-18 0-30.333 12.333l-268.333 268.667-268.333-268.667q-12.333-12.333-30.333-12.333-18.333 0-30.5 12.167t-12.167 30.5q0 18 12.333 30.333l268.667 268.333-268.667 268.333q-12.333 12.333-12.333 30.333 0 18.333 12.167 30.5t30.5 12.167q18 0 30.333-12.333l268.333-268.667 268.333 268.667q12.333 12.333 30.333 12.333z" />
<glyph unicode="&#xe806;" glyph-name="spinner" d="M384 832c0 70.692 57.308 128 128 128s128-57.308 128-128c0-70.692-57.308-128-128-128s-128 57.308-128 128zM655.53 719.53c0 70.692 57.308 128 128 128s128-57.308 128-128c0-70.692-57.308-128-128-128s-128 57.308-128 128zM832 448c0 35.346 28.654 64 64 64s64-28.654 64-64c0-35.346-28.654-64-64-64s-64 28.654-64 64zM719.53 176.47c0 35.346 28.654 64 64 64s64-28.654 64-64c0-35.346-28.654-64-64-64s-64 28.654-64 64zM448.002 64c0 0 0 0 0 0 0 35.346 28.654 64 64 64s64-28.654 64-64c0 0 0 0 0 0 0-35.346-28.654-64-64-64s-64 28.654-64 64zM176.472 176.47c0 0 0 0 0 0 0 35.346 28.654 64 64 64s64-28.654 64-64c0 0 0 0 0 0 0-35.346-28.654-64-64-64s-64 28.654-64 64zM144.472 719.53c0 0 0 0 0 0 0 53.019 42.981 96 96 96s96-42.981 96-96c0 0 0 0 0 0 0-53.019-42.981-96-96-96s-96 42.981-96 96zM56 448c0 39.765 32.235 72 72 72s72-32.235 72-72c0-39.765-32.235-72-72-72s-72 32.235-72 72z" />
<glyph unicode="&#xe900;" glyph-name="icon5" horiz-adv-x="1443" d="M1396.364 401.455h-884.364c-25.74 0-46.545 20.806-46.545 46.545 0 25.693 20.806 46.545 46.545 46.545h884.364c25.74 0 46.545-20.852 46.545-46.545 0-25.74-20.806-46.545-46.545-46.545zM1396.364 866.909h-884.364c-25.74 0-46.545 20.852-46.545 46.545s20.806 46.545 46.545 46.545h884.364c25.74 0 46.545-20.852 46.545-46.545s-20.806-46.545-46.545-46.545zM139.636-64h-93.091c-25.74 0-46.545 20.806-46.545 46.545s20.806 46.545 46.545 46.545h93.091c25.74 0 46.545-20.806 46.545-46.545s-20.806-46.545-46.545-46.545zM139.636 401.455h-93.091c-25.74 0-46.545 20.806-46.545 46.545 0 25.693 20.806 46.545 46.545 46.545h93.091c25.74 0 46.545-20.852 46.545-46.545 0-25.74-20.806-46.545-46.545-46.545zM139.636 866.909h-93.091c-25.74 0-46.545 20.852-46.545 46.545s20.806 46.545 46.545 46.545h93.091c25.74 0 46.545-20.852 46.545-46.545s-20.806-46.545-46.545-46.545zM512 29.091h884.364c25.74 0 46.545-20.806 46.545-46.545s-20.806-46.545-46.545-46.545h-884.364c-25.74 0-46.545 20.806-46.545 46.545s20.806 46.545 46.545 46.545z" />
<glyph unicode="&#xe901;" glyph-name="icon" d="M991.529-64.111c-8.174 0-16.384 3.121-22.626 9.4l-320.070 320.107c-12.52 12.52-12.52 32.769 0 45.252 12.483 12.52 32.769 12.52 45.252 0l320.070-320.107c12.52-12.52 12.52-32.769 0-45.252-6.242-6.279-14.415-9.4-22.626-9.4zM31.282-64.111c-8.174 0-16.347 3.121-22.626 9.4-12.52 12.483-12.52 32.731 0 45.252l457.497 457.571-457.497 457.571c-12.52 12.483-12.52 32.731 0 45.252s32.769 12.52 45.289 0l457.46-457.571 457.497 457.571c12.52 12.52 32.769 12.52 45.252 0 12.52-12.52 12.52-32.769 0-45.252l-960.209-960.395c-6.279-6.279-14.452-9.4-22.663-9.4z" />
<glyph unicode="&#xe902;" glyph-name="icon2" d="M512-64c-282.778 0-512 229.222-512 512s229.222 512 512 512c282.778 0 512-229.222 512-512s-229.222-512-512-512zM512 857.6c-226.202 0-409.6-183.398-409.6-409.6s183.398-409.6 409.6-409.6c226.202 0 409.6 183.398 409.6 409.6s-183.398 409.6-409.6 409.6zM665.6 396.8h-153.6c-28.262 0-51.2 22.938-51.2 51.2v256c0 28.262 22.938 51.2 51.2 51.2s51.2-22.938 51.2-51.2v-204.8h102.4c28.262 0 51.2-22.938 51.2-51.2s-22.938-51.2-51.2-51.2z" />
<glyph unicode="&#xe903;" glyph-name="icon3" d="M1016.057-56.195c-5.397-5.397-12.482-8.081-19.539-8.081-7.085 0-14.17 2.685-19.567 8.081l-138.378 138.406c-10.821 10.794-10.821 28.312 0 39.133 10.794 10.821 28.312 10.821 39.133 0l138.351-138.378c10.821-10.821 10.821-28.34 0-39.161zM442.811 73.908c-118.397 0-229.68 46.108-313.399 129.799-172.807 172.807-172.807 453.992 0 626.771 83.719 83.719 195.003 129.827 313.399 129.827 118.369 0 229.68-46.108 313.372-129.827 172.807-172.779 172.807-453.964 0-626.771-83.691-83.691-195.003-129.799-313.372-129.799zM717.049 791.372c-73.258 73.23-170.648 113.581-274.238 113.581s-201.008-40.351-274.266-113.581c-151.192-151.22-151.192-397.312 0-548.504 73.258-73.258 170.676-113.609 274.266-113.609s200.981 40.351 274.238 113.609c151.22 151.192 151.22 397.284 0 548.504z" />
<glyph unicode="&#xe904;" glyph-name="uniE904" d="M957.217 381.217h-378.435v-378.435c0-36.864-29.919-66.738-66.783-66.738-36.909 0-66.783 29.874-66.783 66.738v378.435h-378.435c-36.909 0-66.827 29.919-66.827 66.783 0 36.909 29.919 66.783 66.827 66.783h378.435v378.435c0 36.909 29.874 66.783 66.783 66.783 36.864 0 66.783-29.874 66.783-66.783v-378.435h378.435c36.864 0 66.783-29.874 66.783-66.783 0-36.864-29.919-66.783-66.783-66.783z" />
<glyph unicode="&#xe905;" glyph-name="uniE905" d="M66.783 514.827h890.435c36.864 0 66.783-29.919 66.783-66.827 0-36.864-29.919-66.783-66.783-66.783h-890.435c-36.909 0-66.783 29.919-66.783 66.783 0 36.909 29.874 66.827 66.783 66.827z" />
<glyph unicode="&#xe906;" glyph-name="uniE906" d="M981.333 405.333h-426.667v-426.667c0-23.552-19.115-42.667-42.667-42.667s-42.667 19.115-42.667 42.667v426.667h-426.667c-23.552 0-42.667 19.115-42.667 42.667s19.115 42.667 42.667 42.667h426.667v426.667c0 23.552 19.115 42.667 42.667 42.667s42.667-19.115 42.667-42.667v-426.667h426.667c23.552 0 42.667-19.115 42.667-42.667s-19.115-42.667-42.667-42.667z" />
<glyph unicode="&#xe907;" glyph-name="icon4" d="M478.891 161.451l-466.859 512.256c-16.725 16.811-16.725 44.075 0 60.885s43.861 16.811 60.587 0l438.741-481.408 438.741 481.408c16.725 16.811 43.819 16.811 60.544 0 16.768-16.811 16.768-44.075 0-60.885l-466.859-512.256c-8.917-8.96-20.736-12.8-32.427-12.203-11.691-0.597-23.552 3.243-32.469 12.203z" />
<glyph unicode="&#xe908;" glyph-name="uniE908" d="M798.549 416.213l-512.256-466.859c-16.811-16.725-44.075-16.725-60.885 0s-16.811 43.861 0 60.587l481.408 438.741-481.408 438.741c-16.811 16.725-16.811 43.819 0 60.544 16.811 16.768 44.075 16.768 60.885 0l512.256-466.859c8.96-8.917 12.8-20.736 12.203-32.427 0.597-11.691-3.243-23.509-12.203-32.469z" />
<glyph unicode="&#xe909;" glyph-name="uniE909" d="M984.615 369.231h-118.154c-21.74 0-39.385 17.644-39.385 39.385v118.154c0 21.74 17.644 39.385 39.385 39.385h118.154c21.74 0 39.385-17.644 39.385-39.385v-118.154c0-21.74-17.644-39.385-39.385-39.385zM984.615 644.923h-118.154c-21.74 0-39.385 17.644-39.385 39.385v118.154c0 21.74 17.644 39.385 39.385 39.385h118.154c21.74 0 39.385-17.644 39.385-39.385v-118.154c0-21.74-17.644-39.385-39.385-39.385zM827.077 93.538c0-21.74-17.644-39.385-39.385-39.385h-551.385c-21.74 0-39.385 17.644-39.385 39.385v118.154c0 21.74 17.644 39.385 39.385 39.385h551.385c21.74 0 39.385-17.644 39.385-39.385v-118.154zM708.923 369.231h-118.154c-21.74 0-39.385 17.644-39.385 39.385v118.154c0 21.74 17.644 39.385 39.385 39.385h118.154c21.74 0 39.385-17.644 39.385-39.385v-118.154c0-21.74-17.644-39.385-39.385-39.385zM708.923 644.923h-118.154c-21.74 0-39.385 17.644-39.385 39.385v118.154c0 21.74 17.644 39.385 39.385 39.385h118.154c21.74 0 39.385-17.644 39.385-39.385v-118.154c0-21.74-17.644-39.385-39.385-39.385zM433.231 369.231h-118.154c-21.74 0-39.385 17.644-39.385 39.385v118.154c0 21.74 17.644 39.385 39.385 39.385h118.154c21.74 0 39.385-17.644 39.385-39.385v-118.154c0-21.74-17.644-39.385-39.385-39.385zM433.231 644.923h-118.154c-21.74 0-39.385 17.644-39.385 39.385v118.154c0 21.74 17.644 39.385 39.385 39.385h118.154c21.74 0 39.385-17.644 39.385-39.385v-118.154c0-21.74-17.644-39.385-39.385-39.385zM157.538 369.231h-118.154c-21.74 0-39.385 17.644-39.385 39.385v118.154c0 21.74 17.644 39.385 39.385 39.385h118.154c21.74 0 39.385-17.644 39.385-39.385v-118.154c0-21.74-17.644-39.385-39.385-39.385zM157.538 644.923h-118.154c-21.74 0-39.385 17.644-39.385 39.385v118.154c0 21.74 17.644 39.385 39.385 39.385h118.154c21.74 0 39.385-17.644 39.385-39.385v-118.154c0-21.74-17.644-39.385-39.385-39.385z" />
<glyph unicode="&#xe90a;" glyph-name="uniE90A" d="M771.392 342.944c-34.624 24.352-55.648 63.712-54.624 106.176 0.896 37.344 18.848 71.264 47.264 94.496l104.032-104.032-96.672-96.64zM562.816 464c-2.144-89.12 42.208-168.352 110.784-215.328 0.576-0.416 1.408-0.928 2.112-1.408l-78.816-78.816c-90.144 68.384-147.84 176.704-144.928 298.272 2.528 105.952 50.72 199.488 124.672 264.288l78.272-78.272c-54.592-45.184-90.272-112.416-92.096-188.736zM281.344 467.808c-8.544-141.472 25.024-207.232 64.736-279.552 37.472-68.256 108.384-129.152 125.792-144.832l-83.84-83.84c-167.488 131.52-244.032 350.112-225.216 511.072 4.32 180.192 95.424 336.896 224.576 449.6l83.36-83.36c-107.552-90.88-178.816-194.496-189.408-369.088z" />
<glyph unicode="&#xe90b;" glyph-name="uniE90B" horiz-adv-x="599" d="M12.117 416.213l512.256-466.859c16.811-16.725 44.075-16.725 60.885 0 16.811 16.768 16.811 43.861 0 60.587l-481.408 438.741 481.408 438.741c16.811 16.725 16.811 43.819 0 60.544-16.811 16.768-44.075 16.768-60.885 0l-512.256-466.859c-8.96-8.917-12.8-20.736-12.203-32.427-0.597-11.691 3.243-23.509 12.203-32.469z" />
<glyph unicode="&#xe90c;" glyph-name="user" d="M995.52 53.248c-6.432 4.256-123.136 80.8-296.736 118.368 63.68 80.672 104.576 189.184 121.952 261.408 24.128 100.096 14.752 295.936-81.376 417.984-56.192 71.328-134.816 108.992-227.36 108.992s-171.168-37.696-227.328-108.992c-96.128-122.016-105.472-317.856-81.376-417.952 17.376-72.224 58.24-180.736 121.952-261.408-173.6-37.568-290.304-114.112-296.704-118.368-23.456-15.616-33.952-44.8-25.76-71.744 8.128-27.040 33.056-45.536 61.216-45.536h896c28.192 0 53.056 18.496 61.248 45.504 8.224 26.944-2.272 56.128-25.728 71.744zM648.544 211.264l-10.432-13.248c-76.32-87.68-175.84-87.68-252.128 0l-10.464 13.248c-89.12 112.928-133.344 262.304-114.304 404.8 17.44 136.928 95.904 279.936 250.784 279.936s233.376-143.040 250.816-279.968c18.976-142.56-25.088-291.776-114.272-404.768zM64 0c4.416 2.944 112.832 74.048 274.752 109.056l79.488 17.184c28.384-18.624 59.52-30.24 93.76-30.24 34.272 0 65.376 11.616 93.76 30.24l79.488-17.184c160.64-34.752 268.672-105.056 274.752-109.056h-896z" />
<glyph unicode="&#xe90d;" glyph-name="key" d="M704.128 960c-176.736 0-320-143.296-320-320 0-41.12 8.608-80.032 22.816-116.128l-388.768-388.736c-11.232-11.264-18.176-21.952-18.176-39.136v-96c0-34.24 29.728-64 64-64h96c17.152 0 28 6.88 39.232 18.048l45.92 45.952h74.976c35.328 0 64 28.672 64 64v64h64c35.328 0 64 28.672 64 64v75.008l75.808 75.872c36.128-14.24 75.008-22.88 116.192-22.88 176.672 0 320 143.296 320 320s-143.328 320-320 320zM704.128 384c-47.36 0-91.264 13.76-129.312 36.224l-11.008-10.976-96.96-96.992c-12-12-18.752-28.256-18.752-45.248v-75.008h-64c-35.328 0-64-28.64-64-64v-64h-74.944c-16.96 0-33.248-6.752-45.248-18.752l-45.376-45.376-90.432 0.128-0.096 91.2 373.28 372.608c0 0 0-0.032 0.032-0.064l47.008 47.008c-22.464 38.048-36.224 81.92-36.224 129.28 0 141.376 114.656 256 256 256s256-114.624 256-256-114.592-256.032-255.968-256.032zM890.24 696.352c-35.872 49.984-79.552 93.6-129.76 129.728-8.16 5.92-18.72 7.392-28.224 4.064-44.448-15.648-74.88-46.048-90.432-90.496-1.184-3.328-1.76-6.784-1.76-10.208 0-6.368 1.984-12.672 5.824-18.016 36-50.048 79.616-93.696 129.696-129.696 8.192-5.888 18.688-7.392 28.192-4.096 44.512 15.552 74.944 46.016 90.56 90.496 1.184 3.328 1.76 6.784 1.76 10.208-0.032 6.368-2.048 12.672-5.856 18.016zM794.24 607.68c-47.296 34.016-88.48 75.2-122.24 121.376 12.384 35.296 35.552 58.464 69.824 71.072 47.328-34.080 88.448-75.168 122.112-121.952-12.512-35.040-35.616-58.080-69.696-70.496z" />
<glyph unicode="&#xe90e;" glyph-name="apple" d="M791.498 415.908c-1.294 129.682 105.758 191.876 110.542 194.966-60.152 88.020-153.85 100.078-187.242 101.472-79.742 8.074-155.596-46.948-196.066-46.948-40.368 0-102.818 45.754-168.952 44.552-86.916-1.292-167.058-50.538-211.812-128.38-90.304-156.698-23.126-388.84 64.89-515.926 43.008-62.204 94.292-132.076 161.626-129.58 64.842 2.588 89.362 41.958 167.756 41.958s100.428-41.958 169.050-40.67c69.774 1.296 113.982 63.398 156.692 125.796 49.39 72.168 69.726 142.038 70.924 145.626-1.548 0.706-136.060 52.236-137.408 207.134zM662.562 796.478c35.738 43.358 59.86 103.512 53.28 163.522-51.478-2.096-113.878-34.29-150.81-77.55-33.142-38.376-62.148-99.626-54.374-158.436 57.466-4.484 116.128 29.204 151.904 72.464z" />
<glyph unicode="&#xe90f;" glyph-name="android" d="M896 576c-35.2 0-64-28.8-64-64v-256c0-35.2 28.8-64 64-64s64 28.8 64 64v256c0 35.2-28.8 64-64 64zM128 576c-35.2 0-64-28.8-64-64v-256c0-35.2 28.8-64 64-64s64 28.8 64 64v256c0 35.2-28.802 64-64 64zM224 224c0-53.020 42.98-96 96-96v0-128c0-35.2 28.8-64 64-64s64 28.8 64 64v128h128v-128c0-35.2 28.8-64 64-64s64 28.8 64 64v128c53.020 0 96 42.98 96 96v352h-576v-352zM798.216 639.998c-9.716 87.884-59.004 163.792-129.62 209.646l32.024 64.046c7.904 15.806 1.496 35.028-14.31 42.932s-35.030 1.496-42.932-14.312l-32.142-64.286-8.35 3.316c-28.568 9.502-59.122 14.66-90.886 14.66-31.762 0-62.316-5.158-90.888-14.656l-8.348-3.316-32.142 64.282c-7.904 15.808-27.128 22.212-42.932 14.312-15.808-7.904-22.214-27.126-14.312-42.932l32.022-64.046c-70.616-45.852-119.904-121.762-129.622-209.644v-32h574.222v31.998h-1.784zM416 704c-17.674 0-32 14.328-32 32 0 17.648 14.288 31.958 31.93 31.996 0.032 0 0.062-0.002 0.094-0.002 0.018 0 0.036 0.002 0.052 0.002 17.638-0.042 31.924-14.35 31.924-31.996 0-17.672-14.326-32-32-32zM608 704c-17.674 0-32 14.328-32 32 0 17.646 14.286 31.954 31.924 31.996 0.016 0 0.034-0.002 0.050-0.002 0.032 0 0.064 0.002 0.096 0.002 17.64-0.038 31.93-14.348 31.93-31.996 0-17.672-14.326-32-32-32z" />
<glyph unicode="&#xe910;" glyph-name="alert" d="M512-64c-282.752 0-512 229.248-512 512s229.248 512 512 512c282.752 0 512-229.248 512-512s-229.248-512-512-512zM512 874.667c-247.424 0-426.667-179.243-426.667-426.667s179.243-426.667 426.667-426.667c247.424 0 426.667 179.243 426.667 426.667s-179.243 426.667-426.667 426.667zM512 106.667c-23.552 0-42.667 19.115-42.667 42.667v85.333c0 23.552 19.115 42.667 42.667 42.667s42.667-19.115 42.667-42.667v-85.333c0-23.552-19.115-42.667-42.667-42.667zM512 362.667c-23.552 0-42.667 19.115-42.667 42.667v341.333c0 23.552 19.115 42.667 42.667 42.667s42.667-19.115 42.667-42.667v-341.333c0-23.552-19.115-42.667-42.667-42.667z" />
</font>
</defs>
</svg>
